<svg width="50" height="50" viewBox="0 0 50 50" fill="none" xmlns="http://www.w3.org/2000/svg">
<circle cx="25" cy="25" r="25" fill="#D1DBEE"/>
<circle cx="25" cy="25" r="8.4" stroke="#4472C4" stroke-width="1.2"/>
<path d="M29.2426 20.7574L29.2978 20.2604L29.6954 20.3046L29.7395 20.7021L29.2426 20.7574ZM26.7677 23.9393C26.5724 24.1346 26.2559 24.1346 26.0606 23.9393C25.8653 23.7441 25.8653 23.4275 26.0606 23.2322L26.7677 23.9393ZM26.7522 19.9776L29.2978 20.2604L29.1874 21.2543L26.6418 20.9715L26.7522 19.9776ZM29.7395 20.7021L30.0224 23.2477L29.0285 23.3582L28.7456 20.8126L29.7395 20.7021ZM29.5961 21.1109L26.7677 23.9393L26.0606 23.2322L28.889 20.4038L29.5961 21.1109Z" fill="#4472C4"/>
<path d="M20.7574 29.2426L20.7022 29.7396L20.3046 29.6954L20.2605 29.2979L20.7574 29.2426ZM23.2323 26.0607C23.4276 25.8654 23.7441 25.8654 23.9394 26.0607C24.1347 26.2559 24.1347 26.5725 23.9394 26.7678L23.2323 26.0607ZM23.2478 30.0224L20.7022 29.7396L20.8126 28.7457L23.3582 29.0285L23.2478 30.0224ZM20.2605 29.2979L19.9776 26.7523L20.9715 26.6418L21.2544 29.1874L20.2605 29.2979ZM20.4039 28.8891L23.2323 26.0607L23.9394 26.7678L21.111 29.5962L20.4039 28.8891Z" fill="#4472C4"/>
<path d="M23.5858 23.5858L24.0827 23.641L24.0386 24.0386L23.641 24.0827L23.5858 23.5858ZM20.4038 21.1109C20.2085 20.9156 20.2085 20.5991 20.4038 20.4038C20.5991 20.2085 20.9157 20.2085 21.1109 20.4038L20.4038 21.1109ZM24.3656 21.0954L24.0827 23.641L23.0888 23.5306L23.3717 20.985L24.3656 21.0954ZM23.641 24.0827L21.0954 24.3656L20.985 23.3717L23.5306 23.0888L23.641 24.0827ZM23.2322 23.9393L20.4038 21.1109L21.1109 20.4038L23.9393 23.2322L23.2322 23.9393Z" fill="#4472C4"/>
<path d="M26.4142 26.4142L25.9173 26.359L25.9614 25.9614L26.359 25.9173L26.4142 26.4142ZM29.5962 28.8891C29.7915 29.0844 29.7915 29.4009 29.5962 29.5962C29.4009 29.7915 29.0843 29.7915 28.8891 29.5962L29.5962 28.8891ZM25.6344 28.9046L25.9173 26.359L26.9112 26.4694L26.6283 29.015L25.6344 28.9046ZM26.359 25.9173L28.9046 25.6344L29.015 26.6283L26.4694 26.9112L26.359 25.9173ZM26.7678 26.0607L29.5962 28.8891L28.8891 29.5962L26.0607 26.7678L26.7678 26.0607Z" fill="#4472C4"/>
</svg>
