<svg width="24" height="24" viewBox="0 0 24 24" fill="none" xmlns="http://www.w3.org/2000/svg">
<circle cx="12" cy="12" r="8.4" stroke="#4472C4" stroke-width="1.2"/>
<path d="M16.2426 7.75736L16.2978 7.26042L16.6954 7.30459L16.7395 7.70214L16.2426 7.75736ZM13.7677 10.9393C13.5724 11.1346 13.2559 11.1346 13.0606 10.9393C12.8653 10.7441 12.8653 10.4275 13.0606 10.2322L13.7677 10.9393ZM13.7522 6.97758L16.2978 7.26042L16.1874 8.2543L13.6418 7.97146L13.7522 6.97758ZM16.7395 7.70214L17.0224 10.2477L16.0285 10.3582L15.7456 7.81258L16.7395 7.70214ZM16.5961 8.11091L13.7677 10.9393L13.0606 10.2322L15.889 7.40381L16.5961 8.11091Z" fill="#4472C4"/>
<path d="M7.75742 16.2426L7.7022 16.7396L7.30465 16.6954L7.26048 16.2979L7.75742 16.2426ZM10.2323 13.0607C10.4276 12.8654 10.7441 12.8654 10.9394 13.0607C11.1347 13.2559 11.1347 13.5725 10.9394 13.7678L10.2323 13.0607ZM10.2478 17.0224L7.7022 16.7396L7.81263 15.7457L10.3582 16.0285L10.2478 17.0224ZM7.26048 16.2979L6.97763 13.7523L7.97152 13.6418L8.25436 16.1874L7.26048 16.2979ZM7.40386 15.8891L10.2323 13.0607L10.9394 13.7678L8.11097 16.5962L7.40386 15.8891Z" fill="#4472C4"/>
<path d="M10.5858 10.5858L11.0827 10.641L11.0386 11.0386L10.641 11.0827L10.5858 10.5858ZM7.40381 8.11091C7.20854 7.91565 7.20854 7.59907 7.40381 7.4038C7.59907 7.20854 7.91565 7.20854 8.11091 7.4038L7.40381 8.11091ZM11.3656 8.09541L11.0827 10.641L10.0888 10.5306L10.3717 7.98498L11.3656 8.09541ZM10.641 11.0827L8.09542 11.3656L7.98499 10.3717L10.5306 10.0888L10.641 11.0827ZM10.2322 10.9393L7.40381 8.11091L8.11091 7.4038L10.9393 10.2322L10.2322 10.9393Z" fill="#4472C4"/>
<path d="M13.4142 13.4142L12.9173 13.359L12.9614 12.9614L13.359 12.9173L13.4142 13.4142ZM16.5962 15.8891C16.7915 16.0844 16.7915 16.4009 16.5962 16.5962C16.4009 16.7915 16.0843 16.7915 15.8891 16.5962L16.5962 15.8891ZM12.6344 15.9046L12.9173 13.359L13.9112 13.4694L13.6283 16.015L12.6344 15.9046ZM13.359 12.9173L15.9046 12.6344L16.015 13.6283L13.4694 13.9112L13.359 12.9173ZM13.7678 13.0607L16.5962 15.8891L15.8891 16.5962L13.0607 13.7678L13.7678 13.0607Z" fill="#4472C4"/>
</svg>
